<?xml version="1.0" encoding="utf-8"?>
<svg version="1.1" xmlns:xlink="http://www.w3.org/1999/xlink" width="22px" height="22px" xmlns="http://www.w3.org/2000/svg">
  <g transform="matrix(1 0 0 1 -1788 -135 )">
    <path d="M 13.5924479166667 13.5924479166667  C 14.30859375 12.8763020833333  14.6666666666667 12.0121527777778  14.6666666666667 11  C 14.6666666666667 9.98784722222222  14.30859375 9.12369791666667  13.5924479166667 8.40755208333333  C 12.8763020833333 7.69140625  12.0121527777778 7.33333333333333  11 7.33333333333333  C 9.98784722222222 7.33333333333333  9.12369791666667 7.69140625  8.40755208333333 8.40755208333333  C 7.69140625 9.12369791666667  7.33333333333333 9.98784722222222  7.33333333333333 11  C 7.33333333333333 12.0121527777778  7.69140625 12.8763020833333  8.40755208333333 13.5924479166667  C 9.12369791666667 14.30859375  9.98784722222222 14.6666666666667  11 14.6666666666667  C 12.0121527777778 14.6666666666667  12.8763020833333 14.30859375  13.5924479166667 13.5924479166667  Z M 21.8854166666667 9.10221354166667  C 21.9618055555556 9.20247395833333  22 9.31467013888889  22 9.43880208333333  L 22 12.6184895833333  C 22 12.7330729166667  21.9618055555556 12.8428819444444  21.8854166666667 12.9479166666667  C 21.8090277777778 13.0529513888889  21.7135416666667 13.1150173611111  21.5989583333333 13.1341145833333  L 18.94921875 13.53515625  C 18.7677951388889 14.05078125  18.5815972222222 14.4852430555556  18.390625 14.8385416666667  C 18.7248263888889 15.3159722222222  19.2356770833333 15.9748263888889  19.9231770833333 16.8151041666667  C 20.0186631944444 16.9296875  20.06640625 17.0490451388889  20.06640625 17.1731770833333  C 20.06640625 17.2973090277778  20.0234375 17.4071180555556  19.9375 17.5026041666667  C 19.6796875 17.8559027777778  19.20703125 18.3715277777778  18.51953125 19.0494791666667  C 17.83203125 19.7274305555556  17.3832465277778 20.06640625  17.1731770833333 20.06640625  C 17.05859375 20.06640625  16.9344618055556 20.0234375  16.80078125 19.9375  L 14.82421875 18.390625  C 14.4040798611111 18.6102430555556  13.9696180555556 18.7916666666667  13.5208333333333 18.9348958333333  C 13.3680555555556 20.2335069444444  13.2296006944444 21.1215277777778  13.10546875 21.5989583333333  C 13.0386284722222 21.8663194444444  12.8667534722222 22  12.58984375 22  L 9.41015625 22  C 9.27647569444445 22  9.15950520833333 21.9594184027778  9.05924479166667 21.8782552083333  C 8.958984375 21.7970920138889  8.90407986111111 21.6944444444444  8.89453125 21.5703125  L 8.49348958333333 18.9348958333333  C 8.02560763888889 18.7821180555556  7.59592013888889 18.60546875  7.20442708333333 18.4049479166667  L 5.18489583333333 19.9375  C 5.08940972222222 20.0234375  4.97005208333333 20.06640625  4.82682291666667 20.06640625  C 4.69314236111111 20.06640625  4.57378472222222 20.0138888888889  4.46875 19.9088541666667  C 3.265625 18.8203125  2.47786458333333 18.0182291666667  2.10546875 17.5026041666667  C 2.03862847222222 17.4071180555556  2.00520833333333 17.2973090277778  2.00520833333333 17.1731770833333  C 2.00520833333333 17.05859375  2.04340277777778 16.9487847222222  2.11979166666667 16.84375  C 2.26302083333333 16.6432291666667  2.50651041666667 16.3257378472222  2.85026041666667 15.8912760416667  C 3.19401041666667 15.4568142361111  3.45182291666667 15.1202256944444  3.62369791666667 14.8815104166667  C 3.36588541666667 14.4040798611111  3.17013888888889 13.9314236111111  3.03645833333333 13.4635416666667  L 0.415364583333333 13.0768229166667  C 0.291232638888889 13.0577256944444  0.190972222222222 12.998046875  0.114583333333333 12.8977864583333  C 0.0381944444444444 12.7975260416667  0 12.6853298611111  0 12.5611979166667  L 0 9.38151041666667  C 0 9.26692708333333  0.0381944444444444 9.15711805555555  0.114583333333333 9.05208333333333  C 0.190972222222222 8.94704861111111  0.281684027777778 8.88498263888889  0.38671875 8.86588541666667  L 3.05078125 8.46484375  C 3.18446180555556 8.02560763888889  3.37065972222222 7.58637152777778  3.609375 7.14713541666667  C 3.22743055555556 6.60286458333333  2.71657986111111 5.94401041666667  2.07682291666667 5.17057291666667  C 1.98133680555556 5.05598958333333  1.93359375 4.94140625  1.93359375 4.82682291666667  C 1.93359375 4.73133680555555  1.9765625 4.62152777777778  2.0625 4.49739583333333  C 2.31076388888889 4.15364583333333  2.78103298611111 3.64040798611111  3.47330729166667 2.95768229166667  C 4.16558159722222 2.27495659722222  4.61675347222222 1.93359375  4.82682291666667 1.93359375  C 4.95095486111111 1.93359375  5.07508680555556 1.98133680555555  5.19921875 2.07682291666667  L 7.17578125 3.609375  C 7.59592013888889 3.38975694444444  8.03038194444445 3.20833333333333  8.47916666666667 3.06510416666667  C 8.63194444444445 1.76649305555555  8.77039930555556 0.87847222222222  8.89453125 0.401041666666666  C 8.96137152777778 0.133680555555554  9.13324652777778 0  9.41015625 0  L 12.58984375 0  C 12.7235243055556 0  12.8404947916667 0.0405815972222203  12.9407552083333 0.121744791666666  C 13.041015625 0.202907986111109  13.0959201388889 0.305555555555554  13.10546875 0.4296875  L 13.5065104166667 3.06510416666667  C 13.9743923611111 3.21788194444444  14.4040798611111 3.39453125  14.7955729166667 3.59505208333333  L 16.8294270833333 2.0625  C 16.9153645833333 1.9765625  17.0299479166667 1.93359375  17.1731770833333 1.93359375  C 17.2973090277778 1.93359375  17.4166666666667 1.98133680555555  17.53125 2.07682291666667  C 18.7630208333333 3.21310763888889  19.55078125 4.02473958333333  19.89453125 4.51171875  C 19.9613715277778 4.58810763888889  19.9947916666667 4.69314236111111  19.9947916666667 4.82682291666667  C 19.9947916666667 4.94140625  19.9565972222222 5.05121527777778  19.8802083333333 5.15625  C 19.7369791666667 5.35677083333333  19.4934895833333 5.67426215277778  19.1497395833333 6.10872395833333  C 18.8059895833333 6.54318576388889  18.5481770833333 6.87977430555555  18.3763020833333 7.11848958333333  C 18.6245659722222 7.59592013888889  18.8203125 8.06380208333333  18.9635416666667 8.52213541666667  L 21.5846354166667 8.92317708333333  C 21.7087673611111 8.94227430555555  21.8090277777778 9.001953125  21.8854166666667 9.10221354166667  Z " fill-rule="nonzero" fill="#0275d8" stroke="none" transform="matrix(1 0 0 1 1788 135 )" />
  </g>
</svg>