<?xml version="1.0" encoding="utf-8"?>
<svg version="1.1" xmlns:xlink="http://www.w3.org/1999/xlink" width="91px" height="89px" xmlns="http://www.w3.org/2000/svg">
  <g transform="matrix(1 0 0 1 -238 -686 )">
    <path d="M 68.25 41.3131510416667  C 69.5138888888889 42.0084635416667  70.1458333333333 43.0707465277778  70.1458333333333 44.5  C 70.1458333333333 45.9292534722222  69.5138888888889 46.9915364583333  68.25 47.6868489583333  L 36.0208333333333 66.228515625  C 35.4283854166667 66.576171875  34.7964409722222 66.75  34.125 66.75  C 33.4930555555556 66.75  32.8611111111111 66.5954861111111  32.2291666666667 66.2864583333333  C 30.9652777777778 65.5525173611111  30.3333333333333 64.4709201388889  31 63.0416666666667  L 31 25.9583333333333  C 30.3333333333333 24.5290798611111  30.9652777777778 23.4474826388889  32.2291666666667 22.7135416666667  C 33.5325520833333 22.0182291666667  34.7964409722222 22.0375434027778  36.0208333333333 22.771484375  L 68.25 41.3131510416667  Z M 73.404296875 60.318359375  C 76.2875434027778 55.4898003472222  77.7291666666667 50.2170138888889  77.7291666666667 44.5  C 77.7291666666667 38.7829861111111  76.2875434027778 33.5101996527778  73.404296875 28.681640625  C 70.5210503472222 23.8530815972222  66.6108940972222 20.0288628472222  61.673828125 17.208984375  C 56.7367621527778 14.3891059027778  51.3454861111111 12.9791666666667  45.5 12.9791666666667  C 39.6545138888889 12.9791666666667  34.2632378472222 14.3891059027778  29.326171875 17.208984375  C 24.3891059027778 20.0288628472222  20.4789496527778 23.8530815972222  17.595703125 28.681640625  C 14.7124565972222 33.5101996527778  13.2708333333333 38.7829861111111  13.2708333333333 44.5  C 13.2708333333333 50.2170138888889  14.7124565972222 55.4898003472222  17.595703125 60.318359375  C 20.4789496527778 65.1469184027778  24.3891059027778 68.9711371527778  29.326171875 71.791015625  C 34.2632378472222 74.6108940972222  39.6545138888889 76.0208333333333  45.5 76.0208333333333  C 51.3454861111111 76.0208333333333  56.7367621527778 74.6108940972222  61.673828125 71.791015625  C 66.6108940972222 68.9711371527778  70.5210503472222 65.1469184027778  73.404296875 60.318359375  Z M 84.8977864583333 22.1630859375  C 88.9659288194444 28.9810112847222  91 36.4266493055555  91 44.5  C 91 52.5733506944444  88.9659288194444 60.0189887152778  84.8977864583333 66.8369140625  C 80.8296440972222 73.6548394097222  75.3100043402778 79.0531684027778  68.3388671875 83.0319010416667  C 61.3677300347222 87.0106336805556  53.7547743055556 89  45.5 89  C 37.2452256944444 89  29.6322699652778 87.0106336805556  22.6611328125 83.0319010416667  C 15.6899956597222 79.0531684027778  10.1703559027778 73.6548394097222  6.10221354166667 66.8369140625  C 2.03407118055556 60.0189887152778  0 52.5733506944444  0 44.5  C 0 36.4266493055555  2.03407118055556 28.9810112847222  6.10221354166667 22.1630859375  C 10.1703559027778 15.3451605902778  15.6899956597222 9.94683159722221  22.6611328125 5.96809895833333  C 29.6322699652778 1.98936631944444  37.2452256944444 0  45.5 0  C 53.7547743055556 0  61.3677300347222 1.98936631944444  68.3388671875 5.96809895833333  C 75.3100043402778 9.94683159722221  80.8296440972222 15.3451605902778  84.8977864583333 22.1630859375  Z " fill-rule="nonzero" fill="#ffffff" stroke="none" transform="matrix(1 0 0 1 238 686 )" />
  </g>
</svg>