<?xml version="1.0" encoding="utf-8"?>
<svg version="1.1" xmlns:xlink="http://www.w3.org/1999/xlink" width="26px" height="21px" xmlns="http://www.w3.org/2000/svg">
  <g transform="matrix(1 0 0 1 -1683 -136 )">
    <path d="M 22.2627013630731 11.9976617303196  C 22.2734407269723 12.0194855806703  22.2788104089219 12.0522213561964  22.2788104089219 12.0958690568979  L 22.2788104089219 19.9524551831645  C 22.2788104089219 20.2361652377241  22.1767864518794 20.4816835541699  21.9727385377943 20.6890101325019  C 21.7686906237092 20.896336710834  21.5270549359769 21  21.2478314745973 21  L 15.0619578686493 21  L 15.0619578686493 14.7147310989867  L 10.9380421313507 14.7147310989867  L 10.9380421313507 21  L 4.75216852540273 21  C 4.47294506402313 21  4.23130937629079 20.896336710834  4.0272614622057 20.6890101325019  C 3.82321354812061 20.4816835541699  3.72118959107807 20.2361652377241  3.72118959107807 19.9524551831645  L 3.72118959107807 12.0958690568979  C 3.72118959107807 12.0849571317225  3.72387443205287 12.0685892439595  3.72924411400248 12.0467653936087  C 3.73461379595209 12.024941543258  3.73729863692689 12.0085736554949  3.73729863692689 11.9976617303196  L 13 4.23928293063133  L 22.2627013630731 11.9976617303196  Z M 25.9838909541512 10.5818394388153  C 25.9946303180504 10.7291504286828  25.9570425444031 10.8573655494934  25.8711276332094 10.9664848012471  L 24.8723667905824 12.1777084957132  C 24.7864518793887 12.2759158222915  24.6736885584469 12.335931410756  24.5340768277571 12.3577552611068  L 24.4857496902107 12.3577552611068  C 24.3461379595209 12.3577552611068  24.2333746385791 12.319563522993  24.1474597273854 12.2431800467654  L 13 2.79890880748246  L 1.85254027261462 12.2431800467654  C 1.72366790582404 12.3304754481684  1.59479553903346 12.3686671862822  1.46592317224287 12.3577552611068  C 1.32631144155308 12.335931410756  1.21354812061132 12.2759158222915  1.1276332094176 12.1777084957132  L 0.128872366790582 10.9664848012471  C 0.0429574555968608 10.8573655494934  0.00536968194960764 10.7291504286828  0.0161090458488228 10.5818394388153  C 0.0268484097480381 10.4345284489478  0.0859149111937216 10.3172252533125  0.193308550185874 10.2299298519096  L 11.7757125154895 0.425565081839439  C 12.1193721602644 0.141855027279811  12.5274679884345 0  13 0  C 13.4725320115655 0  13.8806278397356 0.141855027279811  14.2242874845105 0.425565081839439  L 18.1548946716233 3.76461418550273  L 18.1548946716233 0.572876071706936  C 18.1548946716233 0.420109119251751  18.2032218091698 0.294621979734995  18.2998760842627 0.196414653156665  C 18.3965303593556 0.0982073265783325  18.5200330441966 0.0491036632891663  18.6703841387856 0.0491036632891663  L 21.7633209417596 0.0491036632891663  C 21.9136720363486 0.0491036632891663  22.0371747211896 0.0982073265783325  22.1338289962825 0.196414653156665  C 22.2304832713755 0.294621979734995  22.2788104089219 0.420109119251751  22.2788104089219 0.572876071706936  L 22.2788104089219 7.25097427903352  L 25.8066914498141 10.2299298519096  C 25.9140850888063 10.3172252533125  25.973151590252 10.4345284489478  25.9838909541512 10.5818394388153  Z " fill-rule="nonzero" fill="#0275d8" stroke="none" transform="matrix(1 0 0 1 1683 136 )" />
  </g>
</svg>