<?xml version="1.0" encoding="utf-8"?>
<svg version="1.1" xmlns:xlink="http://www.w3.org/1999/xlink" width="32px" height="31px" xmlns="http://www.w3.org/2000/svg">
  <g transform="matrix(1 0 0 1 -701 -655 )">
    <path d="M 29.8541666666667 7.7197265625  C 31.2847222222222 10.0945095486111  32 12.6879340277778  32 15.5  C 32 18.3120659722222  31.2847222222222 20.9054904513889  29.8541666666667 23.2802734375  C 28.4236111111111 25.6550564236111  26.4826388888889 27.5353732638889  24.03125 28.9212239583333  C 21.5798611111111 30.3070746527778  18.9027777777778 31  16 31  C 13.0972222222222 31  10.4201388888889 30.3070746527778  7.96875 28.9212239583333  C 5.51736111111111 27.5353732638889  3.57638888888889 25.6550564236111  2.14583333333333 23.2802734375  C 0.715277777777778 20.9054904513889  0 18.3120659722222  0 15.5  C 0 12.6879340277778  0.715277777777778 10.0945095486111  2.14583333333333 7.7197265625  C 3.57638888888889 5.34494357638889  5.51736111111111 3.46462673611111  7.96875 2.07877604166667  C 10.4201388888889 0.69292534722222  13.0972222222222 0  16 0  C 18.9027777777778 0  21.5798611111111 0.69292534722222  24.03125 2.07877604166667  C 26.4826388888889 3.46462673611111  28.4236111111111 5.34494357638889  29.8541666666667 7.7197265625  Z " fill-rule="nonzero" fill="#70b603" stroke="none" transform="matrix(1 0 0 1 701 655 )" />
  </g>
</svg>