<?xml version="1.0" encoding="utf-8"?>
<svg version="1.1" xmlns:xlink="http://www.w3.org/1999/xlink" width="27px" height="25px" xmlns="http://www.w3.org/2000/svg">
  <g transform="matrix(1 0 0 1 -206 -500 )">
    <path d="M 20.91796875 10.4166666666667  C 20.91796875 10.6987847222222  20.806640625 10.9429253472222  20.583984375 11.1490885416667  L 13.166015625 18.017578125  C 12.943359375 18.2237413194444  12.6796875 18.3268229166667  12.375 18.3268229166667  C 12.0703125 18.3268229166667  11.806640625 18.2237413194444  11.583984375 18.017578125  L 6.416015625 13.232421875  C 6.193359375 13.0262586805556  6.08203125 12.7821180555556  6.08203125 12.5  C 6.08203125 12.2178819444444  6.193359375 11.9737413194444  6.416015625 11.767578125  L 8.208984375 10.107421875  C 8.431640625 9.90125868055556  8.6953125 9.79817708333333  9 9.79817708333333  C 9.3046875 9.79817708333333  9.568359375 9.90125868055556  9.791015625 10.107421875  L 12.375 12.5  L 17.208984375 8.02408854166667  C 17.431640625 7.81792534722222  17.6953125 7.71484375  18 7.71484375  C 18.3046875 7.71484375  18.568359375 7.81792534722222  18.791015625 8.02408854166667  L 20.583984375 9.68424479166667  C 20.806640625 9.89040798611111  20.91796875 10.1345486111111  20.91796875 10.4166666666667  Z M 21.779296875 16.943359375  C 22.634765625 15.5870225694444  23.0625 14.1059027777778  23.0625 12.5  C 23.0625 10.8940972222222  22.634765625 9.41297743055556  21.779296875 8.056640625  C 20.923828125 6.70030381944444  19.763671875 5.62608506944444  18.298828125 4.833984375  C 16.833984375 4.04188368055556  15.234375 3.64583333333333  13.5 3.64583333333333  C 11.765625 3.64583333333333  10.166015625 4.04188368055556  8.701171875 4.833984375  C 7.236328125 5.62608506944444  6.076171875 6.70030381944444  5.220703125 8.056640625  C 4.365234375 9.41297743055556  3.9375 10.8940972222222  3.9375 12.5  C 3.9375 14.1059027777778  4.365234375 15.5870225694444  5.220703125 16.943359375  C 6.076171875 18.2996961805556  7.236328125 19.3739149305556  8.701171875 20.166015625  C 10.166015625 20.9581163194444  11.765625 21.3541666666667  13.5 21.3541666666667  C 15.234375 21.3541666666667  16.833984375 20.9581163194444  18.298828125 20.166015625  C 19.763671875 19.3739149305556  20.923828125 18.2996961805556  21.779296875 16.943359375  Z M 25.189453125 6.2255859375  C 26.396484375 8.14073350694444  27 10.2322048611111  27 12.5  C 27 14.7677951388889  26.396484375 16.8592664930556  25.189453125 18.7744140625  C 23.982421875 20.6895616319444  22.3447265625 22.2059461805556  20.2763671875 23.3235677083333  C 18.2080078125 24.4411892361111  15.94921875 25  13.5 25  C 11.05078125 25  8.7919921875 24.4411892361111  6.7236328125 23.3235677083333  C 4.6552734375 22.2059461805556  3.017578125 20.6895616319444  1.810546875 18.7744140625  C 0.603515625 16.8592664930556  0 14.7677951388889  0 12.5  C 0 10.2322048611111  0.603515625 8.14073350694444  1.810546875 6.2255859375  C 3.017578125 4.31043836805556  4.6552734375 2.79405381944444  6.7236328125 1.67643229166667  C 8.7919921875 0.558810763888887  11.05078125 0  13.5 0  C 15.94921875 0  18.2080078125 0.558810763888887  20.2763671875 1.67643229166667  C 22.3447265625 2.79405381944444  23.982421875 4.31043836805556  25.189453125 6.2255859375  Z " fill-rule="nonzero" fill="#4b7902" stroke="none" transform="matrix(1 0 0 1 206 500 )" />
  </g>
</svg>