<?xml version="1.0" encoding="utf-8"?>
<svg version="1.1" xmlns:xlink="http://www.w3.org/1999/xlink" width="25px" height="21px" xmlns="http://www.w3.org/2000/svg">
  <g transform="matrix(1 0 0 1 -1817 -15 )">
    <path d="M 20.8659049909802 11.5291193181818  C 21.0663459611145 11.6086647727273  21.1665664461816 11.7528409090909  21.1665664461816 11.9616477272727  L 21.1665664461816 16.7045454545455  C 21.1665664461816 17.8877840909091  20.7431348967729 18.8995028409091  19.8962717979555 19.7397017045455  C 19.0494086991381 20.5799005681818  18.0296652635799 21  16.8370414912808 21  L 4.32952495490078 21  C 3.13690118260172 21  2.1171577470435 20.5799005681818  1.2702946482261 19.7397017045455  C 0.423431549408699 18.8995028409091  0 17.8877840909091  0 16.7045454545455  L 0 4.29545454545455  C 0 3.11221590909091  0.423431549408699 2.10049715909091  1.2702946482261 1.26029829545455  C 2.1171577470435 0.42009943181818  3.13690118260172 0  4.32952495490078 0  L 16.8370414912808 0  C 17.4684305472038 0  18.0547203848467 0.124289772727272  18.5959110042093 0.372869318181817  C 18.74624173181 0.442471590909089  18.8364401683704 0.556818181818181  18.8665063138906 0.71590909090909  C 18.8965724594107 0.884943181818181  18.8514732411305 1.02911931818182  18.7312086590499 1.1484375  L 17.9945880938064 1.87926136363636  C 17.8943676087392 1.97869318181818  17.779114050912 2.02840909090909  17.6488274203247 2.02840909090909  C 17.6187612748046 2.02840909090909  17.5736620565244 2.01846590909091  17.5135297654841 1.99857954545455  C 17.2830226498296 1.93892045454545  17.0575265584285 1.90909090909091  16.8370414912808 2  L 4.32952495490078 2  C 3.66806975345761 1.90909090909091  3.10182401282822 2.14275568181818  2.63078773301263 2.61008522727273  C 2.15975145319703 3.07741477272727  1.92423331328924 3.63920454545455  2 4.29545454545455  L 2 16.7045454545455  C 1.92423331328924 17.3607954545455  2.15975145319703 17.9225852272727  2.63078773301263 18.3899147727273  C 3.10182401282822 18.8572443181818  3.66806975345761 19.0909090909091  4.32952495490078 19  L 16.8370414912808 19  C 17.498496692724 19.0909090909091  18.0647424333534 18.8572443181818  18.535778713169 18.3899147727273  C 19.0068149929846 17.9225852272727  19.2423331328924 17.3607954545455  19.2423331328924 16.7045454545455  L 19.2423331328924 12.9161931818182  C 19.2423331328924 12.7869318181818  19.2874323511726 12.6775568181818  19.377630787733 12.5880681818182  L 20.3397474443776 11.6335227272727  C 20.4399679294448 11.5340909090909  20.555221487272 11.484375  20.6855081178593 11.484375  C 20.7456404088996 11.484375  20.8057726999399 11.4992897727273  20.8659049909802 11.5291193181818  Z M 25 3.81818181818182  C 25 4.14630681818182  24.8797354179194 4.4296875  24.6392062537583 4.66832386363636  L 12.4022850270595 16.8089488636364  C 12.1617558628984 17.0475852272727  11.876127480457 17.1669034090909  11.5453998797354 17.1669034090909  C 11.2146722790138 17.1669034090909  10.9290438965725 17.0475852272727  10.6885147324113 16.8089488636364  L 4.22429344558028 10.3955965909091  C 3.98376428141912 10.1569602272727  3.86349969933854 9.87357954545455  3.86349969933854 9.54545454545455  C 3.86349969933854 9.21732954545454  3.98376428141912 8.93394886363636  4.22429344558028 8.6953125  L 5.87793144918821 7.0546875  C 6.11846061334937 6.81605113636364  6.40408899579074 6.69673295454545  6.73481659651233 6.69673295454545  C 7.06554419723392 6.69673295454545  7.35117257967529 6.81605113636364  7.59170174383644 7.0546875  L 11.5453998797354 10.9772727272727  L 21.2717979555021 1.32741477272727  C 21.5123271196633 1.08877840909091  21.7979555021046 0.969460227272727  22.1286831028262 0.969460227272727  C 22.4594107035478 0.969460227272727  22.7450390859892 1.08877840909091  22.9855682501503 1.32741477272727  L 24.6392062537583 2.96803977272727  C 24.8797354179194 3.20667613636364  25 3.49005681818182  25 3.81818181818182  Z " fill-rule="nonzero" fill="#0275d8" stroke="none" transform="matrix(1 0 0 1 1817 15 )" />
  </g>
</svg>