<?xml version="1.0" encoding="utf-8"?>
<svg version="1.1" xmlns:xlink="http://www.w3.org/1999/xlink" width="106px" height="41px" xmlns="http://www.w3.org/2000/svg">
  <defs>
    <radialGradient cx="53.8089887640449" cy="73.167290886392" r="7.31322688744333" gradientTransform="matrix(0 0.69991015274034 -1 0 126.976279650437 35.5058333417461 )" gradientUnits="userSpaceOnUse" id="RadialGradient58">
      <stop id="Stop59" stop-color="#ffffff" offset="0" />
      <stop id="Stop60" stop-color="#f2f2f2" offset="1" />
    </radialGradient>
  </defs>
  <g transform="matrix(1 0 0 1 -2 -53 )">
    <path d="M 2.5 57  A 3.5 3.5 0 0 1 6 53.5 L 104 53.5  A 3.5 3.5 0 0 1 107.5 57 L 107.5 90  A 3.5 3.5 0 0 1 104 93.5 L 6 93.5  A 3.5 3.5 0 0 1 2.5 90 L 2.5 57  Z " fill-rule="nonzero" fill="url(#RadialGradient58)" stroke="none" />
    <path d="M 2.5 57  A 3.5 3.5 0 0 1 6 53.5 L 104 53.5  A 3.5 3.5 0 0 1 107.5 57 L 107.5 90  A 3.5 3.5 0 0 1 104 93.5 L 6 93.5  A 3.5 3.5 0 0 1 2.5 90 L 2.5 57  Z " stroke-width="1" stroke="#d7d7d7" fill="none" />
  </g>
</svg>