<?xml version="1.0" encoding="utf-8"?>
<svg version="1.1" xmlns:xlink="http://www.w3.org/1999/xlink" width="37px" height="31px" xmlns="http://www.w3.org/2000/svg">
  <g transform="matrix(1 0 0 1 -37 -58 )">
    <path d="M 31.6815365551425 17.7108339828527  C 31.696819496076 17.7430501428943  31.7044609665428 17.7913743829566  31 17.8558067030398  L 31 29.4536243180047  C 31.7044609665428 29.8724343985451  31.5592730276745 30.2348661990127  31.268897149938 30.5409197194076  C 30.9785212722016 30.8469732398025  30.6346551011979 31  30.2372986369269 31  L 21.4343246592317 31  L 21.4343246592317 21.7217459080281  L 15.5656753407683 21.7217459080281  L 15.5656753407683 31  L 6.76270136307311 31  C 6.36534489880215 31  6.02147872779843 30.8469732398025  5.73110285006196 30.5409197194076  C 5.44072697232549 30.2348661990127  5.29553903345725 29.8724343985451  6 29.4536243180047  L 6 17.8558067030398  C 5.29553903345725 17.839698623019  5.29935976869062 17.8155365029878  5.30700123915737 17.7833203429462  C 5.31464270962412 17.7511041829047  5.3184634448575 17.7269420628735  5.3184634448575 17.7108339828527  L 18.5 6.25798908807482  L 31.6815365551425 17.7108339828527  Z M 36.9770755885998 15.6208106001559  C 36.9923585295333 15.8382696804365  36.938868236266 16.0275396206807  36.816604708798 16.1886204208885  L 35.3952912019827 17.9766173031956  C 35.2730276745147 18.1215900233827  35.1125567947129 18.210184463497  34.9138785625775 18.2424006235386  L 34.8451053283767 18.2424006235386  C 34.6464270962412 18.2424006235386  34.4859562164395 18.1860223434658  34.3636926889715 18.0732657833203  L 18.5 4.13172252533125  L 2.6363073110285 18.0732657833203  C 2.45291201982652 18.2021304234866  2.26951672862454 18.2585087035594  2.08612143742255 18.2424006235386  C 1.88744320528707 18.210184463497  1.72697232548534 18.1215900233827  1.60470879801735 17.9766173031956  L 0.183395291201983 16.1886204208885  C 0.0611317637339942 16.0275396206807  0.00764147046674933 15.8382696804365  0.0229244114002478 15.6208106001559  C 0.0382073523337465 15.4033515198753  0.122263527467988 15.2301896596519  0.275092936802974 15.1013250194856  L 16.7577447335812 0.628215120810601  C 17.2467988434531 0.209405040270197  17.8275505989261 0  18.5 0  C 19.1724494010739 0  19.7532011565469 0.209405040270197  20.2422552664188 0.628215120810601  L 25.8358116480793 5.55728760717069  L 25.8358116480793 0.845674201091191  C 25.8358116480793 0.620161080800204  25.90458488228 0.434918160561183  26.0421313506815 0.289945440374125  C 26.179677819083 0.144972720187062  26.3554316398183 0.0724863600935312  26.5693928128872 0.0724863600935312  L 30.9708798017348 0.0724863600935312  C 31.1848409748038 0.0724863600935312  31.360594795539 0.144972720187062  31.4981412639405 0.289945440374125  C 31.635687732342 0.434918160561183  31.7044609665428 0.620161080800204  31.7044609665428 0.845674201091191  L 31.7044609665428 10.7038191738114  L 36.724907063197 15.1013250194856  C 36.877736472532 15.2301896596519  36.9617926476663 15.4033515198753  36.9770755885998 15.6208106001559  Z " fill-rule="nonzero" fill="#0275d8" stroke="none" transform="matrix(1 0 0 1 37 58 )" />
  </g>
</svg>