<?xml version="1.0" encoding="utf-8"?>
<svg version="1.1" xmlns:xlink="http://www.w3.org/1999/xlink" width="99px" height="68px" xmlns="http://www.w3.org/2000/svg">
  <g transform="matrix(1 0 0 1 0 1 )">
    <path d="M 1 3  A 3 3 0 0 1 4 0 L 95 0  A 3 3 0 0 1 98 3 L 98 63  A 3 3 0 0 1 95 66 L 4 66  A 3 3 0 0 1 1 63 L 1 3  Z " fill-rule="nonzero" fill="#ffffff" stroke="none" />
    <path d="M 0.5 3  A 3.5 3.5 0 0 1 4 -0.5 L 95 -0.5  A 3.5 3.5 0 0 1 98.5 3 L 98.5 63  A 3.5 3.5 0 0 1 95 66.5 L 4 66.5  A 3.5 3.5 0 0 1 0.5 63 L 0.5 3  Z " stroke-width="1" stroke="#000000" fill="none" stroke-opacity="0.149019607843137" />
  </g>
</svg>