<?xml version="1.0" encoding="utf-8"?>
<svg version="1.1" xmlns:xlink="http://www.w3.org/1999/xlink" width="42px" height="42px" xmlns="http://www.w3.org/2000/svg">
  <g transform="matrix(1 0 0 1 -35 -204 )">
    <path d="M 6.5625 7.5  L 17 7.5  L 17 25.5  C 16.5 25.90625  16.3515625 26.2578125  16.0546875 26.5546875  C 15.7578125 26.8515625  15.40625 27  15 27  L 15 40.5  C 15 40.90625  14.8515625 41.2578125  14.5546875 41.5546875  C 14.2578125 41.8515625  13.90625 42  13.5 42  L 1.5 42  C 1.09375 42  0.7421875 41.8515625  0.4453125 41.5546875  C 0.1484375 41.2578125  0 40.90625  0 40.5  L 0 28.5  L 5.8359375 8.0390625  C 5.9453125 7.6796875  6.1875 7.5  6.5625 7.5  Z M 18 7.5  L 24 7.5  L 24 24  L 18 24  L 18 7.5  Z M 36.1640625 8.0390625  L 42 28.5  L 42 40.5  C 42 40.90625  41.8515625 41.2578125  41.5546875 41.5546875  C 41.2578125 41.8515625  40.90625 42  40.5 42  L 28.5 42  C 28.09375 42  27.7421875 41.8515625  27.4453125 41.5546875  C 27.1484375 41.2578125  27 40.90625  27 40.5  L 27 27  C 26.59375 27  26.2421875 26.8515625  25.9453125 26.5546875  C 25.6484375 26.2578125  25.5 25.90625  25 25.5  L 25 8  L 35.4375 8  C 35.8125 7.5  36.0546875 7.6796875  36.1640625 8.0390625  Z M 17.0390625 0.210937499999999  C 17.1796875 0.351562499999999  17.25 0.531249999999996  17.25 0.750000000000002  L 17.25 6  L 9 6  L 9 0.750000000000002  C 9 0.531249999999996  9.0703125 0.351562499999999  9.2109375 0.210937499999999  C 9.3515625 0.070312499999998  9.53125 0  9.75 0  L 16.5 0  C 16.71875 0  16.8984375 0.070312499999998  17.0390625 0.210937499999999  Z M 32.7890625 0.210937499999999  C 32.9296875 0.351562499999999  33 0.531249999999996  33 0.750000000000002  L 33 6  L 24.75 6  L 24.75 0.750000000000002  C 24.75 0.531249999999996  24.8203125 0.351562499999999  24.9609375 0.210937499999999  C 25.1015625 0.070312499999998  25.28125 0  25.5 0  L 32.25 0  C 32.46875 0  32.6484375 0.070312499999998  32.7890625 0.210937499999999  Z " fill-rule="nonzero" fill="#0275d8" stroke="none" transform="matrix(1 0 0 1 35 204 )" />
  </g>
</svg>