<?xml version="1.0" encoding="utf-8"?>
<svg version="1.1" xmlns:xlink="http://www.w3.org/1999/xlink" width="110px" height="186px" xmlns="http://www.w3.org/2000/svg">
  <g>
    <path d="M 1 4  A 3 3 0 0 1 4 1 L 106 1  A 3 3 0 0 1 109 4 L 109 182  A 3 3 0 0 1 106 185 L 4 185  A 3 3 0 0 1 1 182 L 1 4  Z " fill-rule="nonzero" fill="#ffffff" stroke="none" />
    <path d="M 0.5 4  A 3.5 3.5 0 0 1 4 0.5 L 106 0.5  A 3.5 3.5 0 0 1 109.5 4 L 109.5 182  A 3.5 3.5 0 0 1 106 185.5 L 4 185.5  A 3.5 3.5 0 0 1 0.5 182 L 0.5 4  Z " stroke-width="1" stroke="#000000" fill="none" stroke-opacity="0.149019607843137" />
  </g>
</svg>