<?xml version="1.0" encoding="utf-8"?>
<svg version="1.1" xmlns:xlink="http://www.w3.org/1999/xlink" width="27px" height="25px" xmlns="http://www.w3.org/2000/svg">
  <g transform="matrix(1 0 0 1 -339 -566 )">
    <path d="M 6.7236328125 1.67643229166667  C 8.7919921875 0.558810763888887  11.05078125 0  13.5 0  C 15.94921875 0  18.2080078125 0.558810763888887  20.2763671875 1.67643229166667  C 22.3447265625 2.79405381944444  23.982421875 4.31043836805556  25.189453125 6.2255859375  C 26.396484375 8.14073350694444  27 10.2322048611111  27 12.5  C 27 14.7677951388889  26.396484375 16.8592664930556  25.189453125 18.7744140625  C 23.982421875 20.6895616319444  22.3447265625 22.2059461805556  20.2763671875 23.3235677083333  C 18.2080078125 24.4411892361111  15.94921875 25  13.5 25  C 11.05078125 25  8.7919921875 24.4411892361111  6.7236328125 23.3235677083333  C 4.6552734375 22.2059461805556  3.017578125 20.6895616319444  1.810546875 18.7744140625  C 0.603515625 16.8592664930556  0 14.7677951388889  0 12.5  C 0 10.2322048611111  0.603515625 8.14073350694444  1.810546875 6.2255859375  C 3.017578125 4.31043836805556  4.6552734375 2.79405381944444  6.7236328125 1.67643229166667  Z M 15.591796875 20.6787109375  C 15.697265625 20.5756293402778  15.75 20.4481336805556  15.75 20.2962239583333  L 15.75 17.2037760416667  C 15.75 17.0518663194444  15.697265625 16.9243706597222  15.591796875 16.8212890625  C 15.486328125 16.7182074652778  15.357421875 16.6666666666667  15.205078125 16.6666666666667  L 11.830078125 16.6666666666667  C 11.677734375 16.6666666666667  11.54296875 16.7209201388889  11.42578125 16.8294270833333  C 11.30859375 16.9379340277778  11.25 17.0627170138889  11.25 17.2037760416667  L 11.25 20.2962239583333  C 11.25 20.4372829861111  11.30859375 20.5620659722222  11.42578125 20.6705729166667  C 11.54296875 20.7790798611111  11.677734375 20.8333333333333  11.830078125 20.8333333333333  L 15.205078125 20.8333333333333  C 15.357421875 20.8333333333333  15.486328125 20.7817925347222  15.591796875 20.6787109375  Z M 15.5302734375 14.9820963541667  C 15.6416015625 14.9007161458333  15.703125 14.8057725694444  15.71484375 14.697265625  L 16.03125 4.58984375  C 16.03125 4.45963541666667  15.97265625 4.36197916666667  15.85546875 4.296875  C 15.73828125 4.21006944444444  15.59765625 4.16666666666667  15.43359375 4.16666666666667  L 11.56640625 4.16666666666667  C 11.40234375 4.16666666666667  11.26171875 4.21006944444444  11.14453125 4.296875  C 11.02734375 4.36197916666667  10.96875 4.45963541666667  10.96875 4.58984375  L 11.267578125 14.697265625  C 11.267578125 14.8057725694444  11.326171875 14.9007161458333  11.443359375 14.9820963541667  C 11.560546875 15.0634765625  11.701171875 15.1041666666667  11.865234375 15.1041666666667  L 15.1171875 15.1041666666667  C 15.28125 15.1041666666667  15.4189453125 15.0634765625  15.5302734375 14.9820963541667  Z " fill-rule="nonzero" fill="#d9001b" stroke="none" transform="matrix(1 0 0 1 339 566 )" />
  </g>
</svg>