<?xml version="1.0" encoding="utf-8"?>
<svg version="1.1" xmlns:xlink="http://www.w3.org/1999/xlink" width="39px" height="39px" xmlns="http://www.w3.org/2000/svg">
  <g transform="matrix(1 0 0 1 -49 -129 )">
    <path d="M 6.09375 6.96428571428572  L 16 6.96428571428572  L 16 23.6785714285714  C 15.3214285714286 24.0558035714286  15.18359375 24.3822544642857  14.9079241071429 24.6579241071429  C 14.6322544642857 24.93359375  14.3058035714286 25.0714285714286  14 25.0714285714286  L 14 37.6071428571429  C 13.9285714285714 37.984375  13.7907366071429 38.3108258928571  13.5150669642857 38.5864955357143  C 13.2393973214286 38.8621651785714  12.9129464285714 39  12.5357142857143 39  L 1.39285714285714 39  C 1.015625 39  0.689174107142857 38.8621651785714  0.413504464285714 38.5864955357143  C 0.137834821428571 38.3108258928571  0 37.984375  0 37.6071428571429  L 0 26.4642857142857  L 5.41908482142857 7.46484375  C 5.52064732142857 7.13113839285714  5.74553571428571 6.96428571428572  6.09375 6.96428571428572  Z M 17 6.96428571428572  L 22 6.96428571428572  L 22 22.2857142857143  L 17 22.2857142857143  L 17 6.96428571428572  Z M 33.5809151785714 7.46484375  L 39 26.4642857142857  L 39 37.6071428571429  C 39 37.984375  38.8621651785714 38.3108258928571  38.5864955357143 38.5864955357143  C 38.3108258928571 38.8621651785714  37.984375 39  37.6071428571429 39  L 26.4642857142857 39  C 26.0870535714286 39  25.7606026785714 38.8621651785714  25.4849330357143 38.5864955357143  C 25.2092633928571 38.3108258928571  25.0714285714286 37.984375  25 37.6071428571429  L 25 25.0714285714286  C 24.6941964285714 25.0714285714286  24.3677455357143 24.93359375  24.0920758928571 24.6579241071429  C 23.81640625 24.3822544642857  23.6785714285714 24.0558035714286  23 23.6785714285714  L 23 6.96428571428572  L 32.90625 6.96428571428572  C 33.2544642857143 6.96428571428572  33.4793526785714 7.13113839285714  33.5809151785714 7.46484375  Z M 15.8219866071429 0.195870535714284  C 15.9525669642857 0.326450892857142  16.0178571428571 0.493303571428568  16.0178571428571 0.696428571428573  L 16.0178571428571 5.57142857142857  L 8.35714285714286 5.57142857142857  L 8.35714285714286 0.696428571428573  C 8.35714285714286 0.493303571428568  8.42243303571428 0.326450892857142  8.55301339285714 0.195870535714284  C 8.68359375 0.0652901785714267  8.85044642857143 0  9.05357142857143 0  L 15.3214285714286 0  C 15.5245535714286 0  15.69140625 0.0652901785714267  15.8219866071429 0.195870535714284  Z M 30.4469866071429 0.195870535714284  C 30.5775669642857 0.326450892857142  30.6428571428571 0.493303571428568  30.6428571428571 0.696428571428573  L 30.6428571428571 5.57142857142857  L 22.9821428571429 5.57142857142857  L 22.9821428571429 0.696428571428573  C 22.9821428571429 0.493303571428568  23.0474330357143 0.326450892857142  23.1780133928571 0.195870535714284  C 23.30859375 0.0652901785714267  23.4754464285714 0  23.6785714285714 0  L 29.9464285714286 0  C 30.1495535714286 0  30.31640625 0.0652901785714267  30.4469866071429 0.195870535714284  Z " fill-rule="nonzero" fill="#0e47a1" stroke="none" transform="matrix(1 0 0 1 49 129 )" />
  </g>
</svg>