<?xml version="1.0" encoding="utf-8"?>
<svg version="1.1" xmlns:xlink="http://www.w3.org/1999/xlink" width="34px" height="30px" xmlns="http://www.w3.org/2000/svg">
  <g transform="matrix(1 0 0 1 -48 -235 )">
    <path d="M 28.9084577114428 27.421875  L 30.3124378109453 26.0323660714286  C 30.5266998341625 25.8203125  30.7804311774461 25.7142857142857  31.073631840796 25.7142857142857  C 31.3668325041459 25.7142857142857  31.6205638474295 25.8203125  31.8348258706468 26.0323660714286  L 34 28.1752232142857  L 32.4776119402985 29.6819196428571  L 31.073631840796 28.2924107142857  L 29.6696517412935 29.6819196428571  C 29.4666666666667 29.8939732142857  29.2129353233831 30  28.9084577114428 30  C 28.6039800995025 30  28.3502487562189 29.8939732142857  28.147263681592 29.6819196428571  L 26.7432835820895 28.2924107142857  L 25.3393034825871 29.6819196428571  C 25.1250414593698 29.8939732142857  24.8713101160862 30  24.5781094527363 30  C 24.2849087893864 30  24.0311774461028 29.8939732142857  23.8169154228856 29.6819196428571  L 22.4129353233831 28.2924107142857  L 21.0089552238806 29.6819196428571  C 20.7946932006633 29.8939732142857  20.5409618573798 30  20.2477611940298 30  C 19.9545605306799 30  19.7008291873964 29.8939732142857  19.4865671641791 29.6819196428571  L 18.0825870646766 28.2924107142857  L 16.6786069651741 29.6819196428571  C 16.4643449419569 29.8939732142857  16.2106135986733 30  15.9174129353234 30  C 15.6242122719735 30  15.3704809286899 29.8939732142857  15.1562189054726 29.6819196428571  L 13.7522388059701 28.2924107142857  L 12.3482587064677 29.6819196428571  C 12.1339966832504 29.8939732142857  11.8802653399668 30  11.5870646766169 30  C 11.293864013267 30  11.0401326699834 29.8939732142857  10.8258706467662 29.6819196428571  L 9.42189054726368 28.2924107142857  L 8.01791044776119 29.6819196428571  C 7.80364842454395 29.8939732142857  7.54991708126037 30  7.25671641791045 30  C 6.96351575456053 30  6.70978441127695 29.8939732142857  6.4955223880597 29.6819196428571  L 5.09154228855721 28.2924107142857  L 3.68756218905473 29.6819196428571  C 3.47330016583748 29.8939732142857  3.2195688225539 30  2.92636815920398 30  C 2.63316749585406 30  2.37943615257048 29.8939732142857  2.16517412935323 29.6819196428571  L 0 27.5390625  L 1.52238805970149 26.0323660714286  L 2.92636815920398 27.421875  L 4.33034825870647 26.0323660714286  C 4.54461028192372 25.8203125  4.7983416252073 25.7142857142857  5.09154228855721 25.7142857142857  C 5.38474295190713 25.7142857142857  5.63847429519071 25.8203125  5.85273631840796 26.0323660714286  L 7.25671641791045 27.421875  L 8.66069651741294 26.0323660714286  C 8.87495854063018 25.8203125  9.12868988391376 25.7142857142857  9.42189054726368 25.7142857142857  C 9.7150912106136 25.7142857142857  9.96882255389718 25.8203125  10.1830845771144 26.0323660714286  L 11.5870646766169 27.421875  L 12.9910447761194 26.0323660714286  C 13.2053067993367 25.8203125  13.4590381426202 25.7142857142857  13.7522388059701 25.7142857142857  C 14.0454394693201 25.7142857142857  14.2991708126037 25.8203125  14.5134328358209 26.0323660714286  L 15.9174129353234 27.421875  L 17.3213930348259 26.0323660714286  C 17.5356550580431 25.8203125  17.7893864013267 25.7142857142857  18.0825870646766 25.7142857142857  C 18.3757877280265 25.7142857142857  18.6295190713101 25.8203125  18.8437810945274 26.0323660714286  L 20.2477611940298 27.421875  L 21.6517412935323 26.0323660714286  C 21.8660033167496 25.8203125  22.1197346600332 25.7142857142857  22.4129353233831 25.7142857142857  C 22.706135986733 25.7142857142857  22.9598673300166 25.8203125  23.1741293532338 26.0323660714286  L 24.5781094527363 27.421875  L 25.9820895522388 26.0323660714286  C 26.1963515754561 25.8203125  26.4500829187396 25.7142857142857  26.7432835820895 25.7142857142857  C 27.0364842454395 25.7142857142857  27.2902155887231 25.8203125  27.5044776119403 26.0323660714286  L 28.9084577114428 27.421875  Z M 5.09154228855721 24.0066964285714  L 3.68756218905473 25.3962053571429  C 3.47330016583748 25.6082589285714  3.2195688225539 25.7142857142857  2.92636815920398 25.7142857142857  C 2.63316749585406 25.7142857142857  2.37943615257048 25.6082589285714  2.16517412935323 25.3962053571429  L 0 23.2533482142857  L 1.52238805970149 21.7466517857143  L 2.92636815920398 23.1194196428571  L 4.33034825870647 21.7466517857143  C 4.54461028192372 21.5345982142857  4.7983416252073 21.4285714285714  5.09154228855721 21.4285714285714  C 5.38474295190713 21.4285714285714  5.63847429519071 21.5345982142857  5.85273631840796 21.7466517857143  L 7.25671641791045 23.1194196428571  L 8.33930348258706 22.0479910714286  L 8.33930348258706 17.1428571428571  L 4.78706467661692 11.8861607142857  C 4.59535655058043 11.5959821428571  4.5558872305141 11.2806919642857  4.66865671641791 10.9402901785714  C 4.78142620232173 10.5998883928571  5.00696517412935 10.3738839285714  5.3452736318408 10.2622767857143  L 8.33930348258706 9.29129464285714  L 8.33930348258706 4.28571428571429  L 10.5044776119403 4.28571428571429  L 10.5044776119403 2.14285714285714  L 14.8348258706468 2.14285714285714  L 14.8348258706468 0  L 19.1651741293532 0  L 19.1651741293532 2.14285714285714  L 23.4955223880597 2.14285714285714  L 23.4955223880597 4.28571428571429  L 25.6606965174129 4.28571428571429  L 25.6606965174129 9.29129464285714  L 28.6547263681592 10.2622767857143  C 28.9930348258706 10.3738839285714  29.2185737976783 10.5998883928571  29.3313432835821 10.9402901785714  C 29.4441127694859 11.2806919642857  29.4046434494196 11.5959821428571  29.2129353233831 11.8861607142857  L 25.6606965174129 17.1428571428571  L 25.6606965174129 22.0479910714286  L 25.9820895522388 21.7466517857143  C 26.1963515754561 21.5345982142857  26.4500829187396 21.4285714285714  26.7432835820895 21.4285714285714  C 27.0364842454395 21.4285714285714  27.2902155887231 21.5345982142857  27.5044776119403 21.7466517857143  L 28.9084577114428 23.1194196428571  L 30.3124378109453 21.7466517857143  C 30.5266998341625 21.5345982142857  30.7804311774461 21.4285714285714  31.073631840796 21.4285714285714  C 31.3668325041459 21.4285714285714  31.6205638474295 21.5345982142857  31.8348258706468 21.7466517857143  L 34 23.8895089285714  L 32.4776119402985 25.3962053571429  L 31.073631840796 24.0066964285714  L 29.6696517412935 25.3962053571429  C 29.4666666666667 25.6082589285714  29.2129353233831 25.7142857142857  28.9084577114428 25.7142857142857  C 28.6039800995025 25.7142857142857  28.3502487562189 25.6082589285714  28.147263681592 25.3962053571429  L 26.7432835820895 24.0066964285714  L 25.3393034825871 25.3962053571429  C 25.1250414593698 25.6082589285714  24.8713101160862 25.7142857142857  24.5781094527363 25.7142857142857  C 24.2849087893864 25.7142857142857  24.0311774461028 25.6082589285714  23.8169154228856 25.3962053571429  L 22.4129353233831 24.0066964285714  L 21.0089552238806 25.3962053571429  C 20.7946932006633 25.6082589285714  20.5409618573798 25.7142857142857  20.2477611940298 25.7142857142857  C 19.9545605306799 25.7142857142857  19.7008291873964 25.6082589285714  19.4865671641791 25.3962053571429  L 18.0825870646766 24.0066964285714  L 16.6786069651741 25.3962053571429  C 16.4643449419569 25.6082589285714  16.2106135986733 25.7142857142857  15.9174129353234 25.7142857142857  C 15.6242122719735 25.7142857142857  15.3704809286899 25.6082589285714  15.1562189054726 25.3962053571429  L 13.7522388059701 24.0066964285714  L 12.3482587064677 25.3962053571429  C 12.1339966832504 25.6082589285714  11.8802653399668 25.7142857142857  11.5870646766169 25.7142857142857  C 11.293864013267 25.7142857142857  11.0401326699834 25.6082589285714  10.8258706467662 25.3962053571429  L 9.42189054726368 24.0066964285714  L 8.01791044776119 25.3962053571429  C 7.80364842454395 25.6082589285714  7.54991708126037 25.7142857142857  7.25671641791045 25.7142857142857  C 6.96351575456053 25.7142857142857  6.70978441127695 25.6082589285714  6.4955223880597 25.3962053571429  L 5.09154228855721 24.0066964285714  Z M 12.6696517412935 6.42857142857143  L 10.5044776119403 6.42857142857143  L 10.5044776119403 8.57142857142857  L 17 6.42857142857143  L 23.4955223880597 8.57142857142857  L 23.4955223880597 6.42857142857143  L 21.3303482587065 6.42857142857143  L 21.3303482587065 4.28571428571429  L 12.6696517412935 4.28571428571429  L 12.6696517412935 6.42857142857143  Z " fill-rule="nonzero" fill="#0e47a1" stroke="none" transform="matrix(1 0 0 1 48 235 )" />
  </g>
</svg>